<svg xmlns="http://www.w3.org/2000/svg" viewBox="0 0 640 390" font-family="system-ui, sans-serif" font-size="12" text-anchor="middle">
  <!-- 비밀번호 찾기·재설정 흐름 (피그마 'UX 표준 정책' 39:169 기준, 흑백). 레인: 진입 · 본인 확인 · 재설정 · 완료 -->
  <defs>
    <marker id="a" viewBox="0 0 10 10" refX="9" refY="5" markerWidth="7" markerHeight="7" orient="auto-start-reverse"><path d="M0,0 L10,5 L0,10 z" fill="#111"/></marker>
  </defs>
  <rect x="0" y="0" width="640" height="90" fill="#f2f2f2"/>
  <rect x="0" y="90" width="640" height="120" fill="#fafafa"/>
  <rect x="0" y="210" width="640" height="90" fill="#f2f2f2"/>
  <rect x="0" y="300" width="640" height="90" fill="#fafafa"/>
  <g font-weight="bold" text-anchor="start"><text x="10" y="18">진입</text><text x="10" y="108">본인 확인</text><text x="10" y="228">재설정</text><text x="10" y="318">완료</text></g>

  <g fill="none" stroke="#111" stroke-width="1.2">
    <path d="M125,51 H148" marker-end="url(#a)"/>
    <path d="M250,51 H273" marker-end="url(#a)"/>
    <path d="M325,72 V123" marker-end="url(#a)"/>
    <path d="M375,147 H398" marker-end="url(#a)"/>
    <path d="M500,147 H523" marker-end="url(#a)"/>
    <path d="M450,170 V233" marker-end="url(#a)"/>
    <path d="M400,257 H377" marker-end="url(#a)"/>
    <path d="M325,280 V323" marker-end="url(#a)"/>
    <path d="M275,347 H252" marker-end="url(#a)"/>
  </g>

  <g fill="#fff" stroke="#111">
    <rect x="25" y="30" width="100" height="42"/>
    <rect x="150" y="30" width="100" height="42"/>
    <rect x="275" y="30" width="100" height="42"/>
    <rect x="275" y="125" width="100" height="45"/>
    <rect x="400" y="125" width="100" height="45"/>
    <rect x="525" y="125" width="100" height="45"/>
    <rect x="400" y="235" width="100" height="45"/>
    <rect x="275" y="235" width="100" height="45"/>
    <rect x="275" y="325" width="100" height="45"/>
    <rect x="150" y="325" width="100" height="45"/>
  </g>

  <g fill="#111">
    <text x="75" y="47">로그인 화면</text><text x="75" y="63" font-size="10">'비밀번호 찾기'</text>
    <text x="200" y="47">비밀번호 찾기</text><text x="200" y="63">진입</text>
    <text x="325" y="47">계정 정보 입력</text><text x="325" y="63" font-size="10">가입 무관 동일 안내</text>
    <text x="325" y="143">인증 수단 선택</text><text x="325" y="159" font-size="10">이메일 / 휴대폰</text>
    <text x="450" y="143">인증번호 입력</text><text x="450" y="159" font-size="10">유효시간·재발송 제한</text>
    <text x="575" y="143">일정 시간</text><text x="575" y="159">인증 제한</text>
    <text x="450" y="253">새 비밀번호 입력</text><text x="450" y="269" font-size="10">규칙 실시간 안내</text>
    <text x="325" y="253">새 비밀번호 확인</text><text x="325" y="269" font-size="10">일치 여부 실시간 안내</text>
    <text x="325" y="343">변경 완료 안내</text><text x="325" y="359" font-size="10">로그인 화면 이동</text>
    <text x="200" y="351">로그인 화면</text>
  </g>

  <g fill="#555" font-size="10">
    <text x="512" y="118">연속 n회 실패</text>
    <text x="456" y="205" text-anchor="start">인증 성공</text>
  </g>
</svg>
